<svg version="1.2" xmlns="http://www.w3.org/2000/svg" viewBox="0 0 951 328" width="435" height="150"><style>.a{fill:#fff}.b{fill:#007490}.c{fill:#ed7f22}</style><path fill-rule="evenodd" class="a" d="m501.5 191.7c-7.8 25.2-21.3 21.1-20.4 49.7 7.5-21.8 15.4-12.8 20.4-49.7z"/><path fill-rule="evenodd" class="b" d="m885.9 252.6c-2.8 2.9-6.8 4.7-11.1 4.7h-5.7c-2.6 0-5.4-0.7-7.9-1.8-2.3-1-4.5-2.6-6.1-4.4l-0.4-0.4-54.7-63.8v60.4c0 5.6-4.5 10.1-10.1 10.1h-5.7c-5.6 0-10.1-4.5-10.1-10.1v-79.3c0-4.3 1.8-8.2 4.7-11.1l0.1-0.1c2.8-2.8 6.7-4.5 11-4.5h5.6c2.6 0 5.3 0.7 7.8 1.8 2.4 1.1 4.7 2.7 6.5 4.5l55 64.2v-60.5c0-5.6 4.5-10.1 10.1-10.1h5.6c5.6 0 10.1 4.5 10.1 10.1v79.1c-0.1 4.5-1.8 8.4-4.7 11.2zm-213.4-100.2h62.3c7.4 0 14.1 3.1 19 8 4.9 4.9 7.9 11.6 7.9 19.1v67.8c0 5.6-4.5 10.1-10.1 10.1h-5.6c-5.6 0-10.1-4.5-10.1-10.1v-29.5h-64.7v29.5c0 5.6-4.5 10.1-10.1 10.1h-5.7c-5.6 0-10.1-4.5-10.1-10.1v-67.8c0-7.5 3-14.2 7.9-19.1 5-5 11.8-8 19.3-8zm-1.3 27v12.5h64.7v-12.5c0-0.4-0.1-0.8-0.4-1-0.2-0.2-0.5-0.4-0.9-0.4h-62.3q-0.6 0-0.9 0.3c0 0.3-0.2 0.7-0.2 1.1zm-46.3 70c-4.9 4.9-11.6 8-19 8h-79.2c-5.6 0-10.1-4.5-10.1-10.1v-84.8c0-5.6 4.5-10.1 10.1-10.1h79.2c7.4 0 14.1 3.1 19 8 4.9 4.9 7.9 11.6 7.9 19.1v50.9c0 7.3-3 14.1-7.9 19zm-82.5-17.9h63.5c0.3 0 0.7-0.1 0.9-0.4 0.2-0.2 0.4-0.5 0.4-0.9v-50.9c0-0.4-0.1-0.8-0.4-1-0.2-0.2-0.5-0.4-0.9-0.4h-63.5zm-257.6-79.1h62.3c7.4 0 14.1 3.1 19 8 4.9 4.9 7.9 11.6 7.9 19.1v67.8c0 5.6-4.5 10.1-10.1 10.1h-5.6c-5.6 0-10.1-4.5-10.1-10.1v-29.5h-64.7v29.5c0 5.6-4.5 10.1-10.1 10.1h-5.7c-5.6 0-10.1-4.5-10.1-10.1v-67.8c0-7.5 3-14.2 7.9-19.1 5.1-5 11.9-8 19.3-8zm-1.2 27v12.5h64.7v-12.5c0-0.4-0.1-0.8-0.4-1-0.2-0.2-0.5-0.4-0.9-0.4h-62.3q-0.6 0-0.9 0.3c-0.1 0.3-0.2 0.7-0.2 1.1zm-128.8 38.4v29.5c0 5.6-4.5 10.1-10.1 10.1h-5.7c-5.6 0-10.1-4.5-10.1-10.1v-84.8c0-5.6 4.5-10.1 10.1-10.1h79.2c7.4 0 14.1 3.1 19 8 4.9 4.9 7.9 11.6 7.9 19.1v11.3c0 7.4-3 14.2-7.9 19.1-4.9 4.9-11.6 8-19 8zm0-39.7v13.9h63.5c0.3 0 0.6-0.1 0.9-0.4 0.3-0.3 0.4-0.5 0.4-0.9v-11.3c0-0.4-0.1-0.8-0.4-1-0.2-0.2-0.5-0.4-0.9-0.4zm-46.3 71.3c-4.9 4.9-11.6 8-19 8h-76.4c-5.6 0-10.1-4.5-10.1-10.1v-5.7c0-5.6 4.5-10.1 10.1-10.1h76.4c0.3 0 0.7-0.1 0.9-0.4 0.2-0.2 0.4-0.5 0.4-0.9v-11.2c0-0.3-0.1-0.6-0.4-0.9-0.2-0.2-0.5-0.4-0.9-0.4h-62.3c-7.5 0-14.2-3-19.1-7.9-4.9-4.9-7.9-11.7-7.9-19.1v-11.3c0-7.5 3-14.2 7.9-19.1 4.9-4.9 11.7-7.9 19.1-7.9h76.4c5.6 0 10.1 4.5 10.1 10.1v5.6c0 5.6-4.5 10.1-10.1 10.1h-76.4q-0.6 0-0.9 0.3c-0.2 0.2-0.4 0.6-0.4 1v11.3c0 0.3 0.1 0.7 0.4 0.9 0.2 0.2 0.5 0.4 0.9 0.4h62.3c7.4 0 14.1 3.1 19 8 4.9 4.9 7.9 11.6 7.9 19.1v11.3c0 7.2-3.1 14-7.9 18.9z"/><path fill-rule="evenodd" class="b" d="m91.4 326.8v-28.5h6.3c4.1 0 6.9 0.2 8.6 0.6 1.7 0.4 3.1 1.1 4.3 2.1 1.6 1.3 2.9 2.9 3.7 4.8 0.9 2 1.3 4.2 1.3 6.8 0 2.5-0.4 4.8-1.3 6.7-0.9 2-2.1 3.6-3.7 4.8-1.2 1-2.7 1.6-4.3 2.1-1.6 0.4-4.1 0.6-7.4 0.6zm4.6-4.2h3.9c2.1 0 3.7-0.1 4.8-0.4 1.1-0.3 2-0.8 2.8-1.4 1.1-0.9 1.9-2.1 2.4-3.4 0.5-1.4 0.8-3 0.8-4.8 0-1.8-0.3-3.4-0.8-4.8-0.5-1.4-1.4-2.5-2.4-3.4-0.8-0.7-1.8-1.2-2.9-1.4-1.1-0.3-2.9-0.4-5.3-0.4h-3.3z"/><path class="b" d="m124.6 326.8v-28.5h15.9v3.9h-11.3v7.1h11.3v4.1h-11.3v9.2h11.3v4.1z"/><path class="b" d="m149.5 326.8v-29.6l18.1 17.4c0.5 0.5 1 1 1.5 1.6 0.5 0.6 1 1.2 1.6 1.9v-19.8h4.3v29.6l-18.5-17.7c-0.5-0.5-1-1-1.4-1.5-0.5-0.5-0.9-1.1-1.3-1.7v19.8z"/><path class="b" d="m194.4 302.2v24.6h-4.6v-24.6h-7.6v-3.9h19.8v3.9z"/><path fill-rule="evenodd" class="b" d="m225.1 326.8l-3.2-7.3h-11.3l-3.3 7.3h-4.9l13.8-29.6 13.8 29.6zm-12.8-11.2h7.9l-2.9-6.5c-0.2-0.4-0.3-0.9-0.5-1.4-0.2-0.5-0.4-1.1-0.5-1.8-0.2 0.6-0.3 1.2-0.5 1.7-0.2 0.5-0.4 1-0.5 1.5z"/><path class="b" d="m236.4 326.8v-28.5h4.6v24.4h10.4v4.1z"/><path class="b" d="m270.9 326.8v-28.5h4.6v28.5z"/><path class="b" d="m309.1 312.7c-0.1-0.2-0.1-0.8-0.2-1.8q-0.2-1.2-0.3-2.1c-0.1 0.6-0.3 1.3-0.5 2-0.2 0.6-0.5 1.3-0.8 2l-7.5 15.2-7.5-15.5c-0.3-0.6-0.6-1.2-0.8-1.9q-0.3-0.9-0.6-1.8c0 0.6-0.1 1.2-0.1 1.9-0.1 0.7-0.2 1.3-0.4 2.1l-3.1 14h-4.3l6.7-29.7 8.4 18c0.1 0.3 0.3 0.8 0.6 1.4 0.3 0.6 0.6 1.5 1 2.5 0.3-0.8 0.7-1.9 1.3-3.1 0.2-0.3 0.3-0.6 0.4-0.8l8.2-18 6.9 29.7h-4.3z"/><path fill-rule="evenodd" class="b" d="m328.3 314v12.8h-4.3v-28.5h7c2.1 0 3.6 0.1 4.6 0.3 1 0.2 1.8 0.6 2.6 1.1q1.4 1 2.1 2.7c0.5 1.1 0.8 2.4 0.8 3.7 0 1.3-0.2 2.6-0.8 3.7-0.6 1.1-1.2 2-2.1 2.7-0.7 0.5-1.6 0.9-2.6 1.1-1 0.2-2.5 0.3-4.6 0.3h-0.9zm0.3-3.8h1.2c2.6 0 4.3-0.3 5.1-0.8 0.8-0.5 1.3-1.5 1.3-3 0-1.5-0.5-2.6-1.4-3.2q-1.3-0.9-5.1-0.9h-1.2z"/><path class="b" d="m348.9 326.8v-28.5h4.6v24.4h10.4v4.1z"/><path fill-rule="evenodd" class="b" d="m390.1 326.8l-3.2-7.3h-11.3l-3.3 7.3h-4.9l13.8-29.6 13.8 29.6zm-12.8-11.2h7.9l-2.9-6.5c-0.2-0.4-0.3-0.9-0.5-1.4-0.2-0.5-0.4-1.1-0.5-1.8-0.2 0.6-0.3 1.2-0.5 1.7-0.2 0.5-0.4 1-0.5 1.5z"/><path class="b" d="m401.4 326.8v-29.6l18.1 17.4c0.5 0.5 1 1 1.5 1.6 0.5 0.6 1 1.2 1.6 1.9v-19.8h4.3v29.6l-18.5-17.7c-0.5-0.5-1-1-1.4-1.5-0.5-0.5-0.9-1.1-1.3-1.7v19.8z"/><path class="b" d="m446.3 302.2v24.6h-4.6v-24.6h-7.6v-3.9h19.7v3.9z"/><path fill-rule="evenodd" class="b" d="m491 326.8l-2.3-2.7c-1.4 1.2-2.7 2-4.2 2.6-1.4 0.6-3 0.8-4.7 0.8-2.6 0-4.8-0.8-6.4-2.3-1.6-1.5-2.5-3.5-2.5-5.9q0-2.4 1.5-4.5c1-1.4 2.6-2.7 4.8-4.1l-1.1-1.2c-0.6-0.7-1.1-1.4-1.5-2.3-0.3-0.8-0.5-1.6-0.5-2.5 0-1.9 0.7-3.4 2.1-4.6 1.4-1.2 3.1-1.8 5.3-1.8 2.1 0 3.8 0.5 5.1 1.6 1.3 1.1 1.9 2.5 1.9 4.4 0 1.4-0.4 2.7-1.3 3.8-0.9 1.1-2.3 2.3-4.2 3.4l5.9 6.9c0.6-0.6 1.2-1.2 1.7-2 0.6-0.7 1.2-1.6 1.9-2.5l2.7 2.9c-0.5 0.8-1.1 1.6-1.7 2.4q-0.9 1-2.1 2.1l4.8 5.4zm-4.9-5.8l-6.2-7.2-0.7 0.5c-1.4 0.9-2.3 1.7-2.8 2.4-0.5 0.7-0.8 1.5-0.8 2.4 0 1.3 0.4 2.3 1.3 3.2 0.9 0.9 2 1.3 3.3 1.3 1 0 2-0.2 3-0.7 0.8-0.3 1.8-1 2.9-1.9zm-5.2-12.4l1.1-0.6c0.7-0.4 1.3-0.9 1.6-1.5 0.4-0.6 0.5-1.2 0.5-1.9 0-0.8-0.2-1.5-0.7-2-0.5-0.5-1.1-0.8-1.9-0.8-0.9 0-1.6 0.3-2.1 0.8-0.5 0.5-0.8 1.2-0.8 2 0 0.4 0.1 0.8 0.2 1.2 0.1 0.4 0.4 0.7 0.7 1.1z"/><path class="b" d="m515.6 326.8v-28.5h4.6v24.4h10.4v4.1z"/><path fill-rule="evenodd" class="b" d="m556.8 326.8l-3.2-7.3h-11.3l-3.3 7.3h-4.9l13.8-29.6 13.8 29.6zm-12.8-11.2h7.9l-2.9-6.5c-0.2-0.4-0.3-0.9-0.5-1.4-0.2-0.5-0.4-1.1-0.5-1.8-0.2 0.6-0.3 1.2-0.5 1.7-0.2 0.5-0.4 1-0.5 1.5z"/><path class="b" d="m566.4 321.1l3.7-1.7c0.4 1.3 1 2.2 1.9 2.9 0.9 0.7 2.1 1 3.6 1 1.4 0 2.5-0.4 3.3-1.1 0.8-0.7 1.2-1.8 1.2-3.1q0-2.6-4.2-4.5c-0.4-0.2-0.7-0.3-0.9-0.4q-4.7-2.3-6.3-4.2c-1-1.2-1.6-2.8-1.6-4.5 0-2.3 0.8-4.2 2.4-5.6 1.6-1.4 3.6-2.2 6.2-2.2 2.1 0 3.9 0.4 5.3 1.2 1.4 0.8 2.4 2 2.9 3.5l-3.6 1.9c-0.6-0.9-1.2-1.6-1.9-2-0.7-0.4-1.5-0.6-2.3-0.6-1.2 0-2.2 0.3-3 1-0.7 0.6-1.1 1.5-1.1 2.6q0 2.5 4.8 4.8 0.3 0.1 0.6 0.3c2.8 1.3 4.8 2.6 5.8 3.8 1.1 1.2 1.6 2.8 1.6 4.6 0 2.7-0.9 4.8-2.6 6.4q-2.6 2.4-6.9 2.4c-2.4 0-4.4-0.6-6-1.7-1.4-1.2-2.4-2.8-2.9-4.8z"/><path class="b" d="m593.6 326.8v-28.5h15.9v3.9h-11.3v7.1h11.3v4.1h-11.3v9.2h11.3v4.1z"/><path fill-rule="evenodd" class="b" d="m622.9 314v12.7h-4.3v-28.5h6.5c1.9 0 3.4 0.1 4.4 0.4 1 0.2 1.9 0.7 2.7 1.2 0.9 0.7 1.6 1.6 2 2.7 0.5 1.1 0.7 2.3 0.7 3.6 0 2.3-0.6 4.1-1.7 5.4-1.1 1.3-2.7 2.1-4.9 2.3l9.8 13h-5.2l-9.5-12.7zm0.3-3.6h0.8c2.5 0 4.1-0.3 4.9-0.9q1.2-0.9 1.2-3c0-1.6-0.4-2.7-1.3-3.3-0.9-0.6-2.5-1-4.8-1h-0.8z"/><path class="b" d="m679.5 305.2c-1.3-1.1-2.7-2-4.2-2.5-1.5-0.6-3-0.8-4.6-0.8-3.1 0-5.7 1-7.6 3-2 2-2.9 4.6-2.9 7.8 0 3.1 1 5.6 2.8 7.6q2.8 3 7.2 3 2.5 0 4.8-0.9c1.5-0.6 3-1.5 4.4-2.7v5.2c-1.2 0.9-2.6 1.6-4.1 2-1.5 0.4-3.1 0.7-4.8 0.7-2.2 0-4.2-0.4-6-1.1-1.9-0.7-3.5-1.8-4.9-3.2-1.4-1.4-2.5-3-3.2-4.8-0.7-1.9-1.1-3.8-1.1-5.9 0-2.1 0.4-4.1 1.1-5.9 0.7-1.8 1.8-3.5 3.2-4.8 1.4-1.4 3-2.5 4.9-3.2 1.8-0.7 3.8-1.1 5.9-1.1 1.7 0 3.3 0.2 4.8 0.7 1.5 0.5 3 1.2 4.4 2.2z"/><path class="b" d="m688.9 326.8v-28.5h4.6v24.4h10.4v4.1z"/><path class="b" d="m711.4 326.8v-28.5h4.6v28.5z"/><path class="b" d="m726.4 326.8v-29.6l18.1 17.4c0.5 0.5 1 1 1.5 1.6 0.5 0.6 1 1.2 1.6 1.9v-19.8h4.3v29.6l-18.5-17.7c-0.5-0.5-1-1-1.4-1.5-0.5-0.5-0.9-1.1-1.3-1.7v19.8z"/><path class="b" d="m762.2 326.8v-28.5h4.6v28.5z"/><path class="b" d="m800 305.2c-1.3-1.1-2.7-2-4.2-2.5-1.5-0.6-3-0.8-4.6-0.8-3.1 0-5.7 1-7.6 3-2 2-2.9 4.6-2.9 7.8 0 3.1 1 5.6 2.8 7.6q2.8 3 7.2 3 2.5 0 4.8-0.9c1.5-0.6 3-1.5 4.4-2.7v5.2c-1.2 0.9-2.6 1.6-4.1 2-1.5 0.4-3.1 0.7-4.8 0.7-2.2 0-4.2-0.4-6-1.1-1.9-0.7-3.5-1.8-4.9-3.2-1.4-1.4-2.5-3-3.2-4.8-0.7-1.9-1.1-3.8-1.1-5.9 0-2.1 0.4-4.1 1.1-5.9 0.7-1.8 1.8-3.5 3.2-4.8 1.4-1.4 3-2.5 4.9-3.2 1.8-0.7 3.8-1.1 5.9-1.1 1.7 0 3.3 0.2 4.8 0.7 1.5 0.5 3 1.2 4.4 2.2z"/><path class="b" d="m367.1 105.3l-21.6 1.2 0.5-2.8 10.9-0.4c2.7-0.1 5.3-0.2 7.4-0.1v-0.1c-2-0.7-4.3-1.9-6.8-3.1l-9.8-4.8 0.5-2.8 10.9-0.5c2.6-0.1 5.1-0.2 7.3-0.1v-0.1c-2.2-0.9-4.3-1.9-6.8-3l-9.8-4.7 0.5-2.7 19.4 9.8-0.5 2.8-11.2 0.5c-2.7 0.1-4.8 0.2-7 0v0.1c2 0.8 3.9 1.6 6.4 2.9l10.1 5z"/><path fill-rule="evenodd" class="b" d="m368.3 76.2c3.3 1.7 5.7 0.3 7-2.1 0.9-1.7 1.2-2.9 1.3-4l1.9 0.5c-0.1 1.1-0.4 2.7-1.5 4.9-2.2 4.1-6.2 5.1-10.2 3-4-2.1-5.9-6.2-3.9-10 2.3-4.3 6.7-3.5 9.2-2.2 0.5 0.3 0.9 0.5 1.1 0.7zm2-8c-1.5-0.8-4.3-1.5-5.7 1.3-1.3 2.4 0.4 4.7 2 5.8z"/><path class="b" d="m398.3 36.9c-2-2.1-4.4-4.7-6.1-6.7l-0.1 0.1c1 2.3 2.1 4.9 3.1 7.8l3.7 10.1-1.6 1.3-9-5.4c-2.7-1.6-5.1-3.1-7.1-4.6 1.6 2 3.8 4.8 5.7 7.3l5.4 7.2-2 1.7-12.4-16.9 2.6-2.2 9.3 5.4c2.3 1.4 4.4 2.7 6.2 4l0.1-0.1c-1-2-1.9-4.2-2.9-6.8l-3.7-10.1 2.6-2.2 14.5 15.1-2 1.7z"/><path fill-rule="evenodd" class="b" d="m421.3 33.9l-1.1-1.6h-0.1c-0.2 1.4-1.1 3.1-3 4.1-2.7 1.4-5.1 0.2-6.1-1.7-1.7-3.2 0.3-6.5 5.4-9.1l-0.1-0.3c-0.6-1.1-1.9-2.9-4.6-1.5-1.2 0.6-2.3 1.7-3 2.8l-1.4-1.3c0.7-1.3 2.1-2.6 3.8-3.5 4.1-2.1 6.5 0.1 7.9 2.8l2.6 5c0.6 1.2 1.2 2.3 1.9 3.1zm-3.9-6.6c-2.7 1.3-5.4 3.4-4.1 6 0.8 1.6 2.3 1.8 3.5 1.1 1.7-0.9 2.3-2.6 2.1-3.9 0-0.3-0.1-0.6-0.3-0.8z"/><path class="b" d="m431.4 20.9c0.2-0.6 0.5-1.4 0.8-2.1l2.5-6.3 3.1-1-3.5 7.7 9.1 6.3-3.2 1.1-7.2-5.2-0.8 1.9 1.8 5.4-2.6 0.9-7-20.9 2.6-0.9z"/><path fill-rule="evenodd" class="b" d="m449.9 16.9c0.7 3.6 3.3 4.7 6 4.3 1.9-0.3 3-0.9 4-1.5l0.8 1.9c-0.9 0.6-2.4 1.4-4.8 1.8-4.6 0.8-7.8-1.7-8.6-6.2-0.8-4.5 1.2-8.4 5.6-9.2 4.8-0.8 6.9 3.2 7.3 5.9 0.1 0.5 0.1 1 0.1 1.3zm7.6-3.3c-0.3-1.7-1.5-4.3-4.5-3.7-2.7 0.5-3.5 3.2-3.4 5.1z"/><path class="b" d="m484.1 21.3l0.5-8.9-6-12.4 3.1 0.2 2.6 5.9c0.7 1.6 1.3 2.9 1.9 4.4h0.1c0.7-1.3 1.5-2.7 2.3-4.2l3.3-5.6 3.1 0.2-7.7 11.6-0.5 8.9z"/><path fill-rule="evenodd" class="b" d="m513 17.7c-1.1 5.5-5.3 7.1-8.9 6.4-4-0.8-6.5-4.3-5.6-9 1-4.9 4.8-7.2 8.9-6.4 4.2 0.8 6.5 4.5 5.6 9zm-11.7-2.2c-0.6 3.2 0.7 6 3.4 6.6 2.6 0.5 4.9-1.5 5.6-4.8 0.5-2.5-0.1-5.9-3.3-6.5-3.2-0.7-5.2 1.9-5.7 4.7z"/><path class="b" d="m532.2 28c-0.5 1.5-1 2.7-1.3 3.9l-2.3-0.9 0.7-2.3h-0.1c-1.1 0.9-3.1 1.8-5.6 0.9-2.2-0.8-4.4-3.1-2.5-8l3.1-8.2 2.6 1-2.9 7.8c-1 2.7-0.9 4.8 1.5 5.7 1.7 0.6 3.4-0.1 4.2-1.1 0.3-0.3 0.6-0.8 0.7-1.2l3.2-8.6 2.6 1z"/><path class="b" d="m550.2 38.5c0.5 1.3 1.6 2.9 3.1 4 2.2 1.6 4.4 1.4 5.6-0.3 1.1-1.6 0.9-3.1-0.8-5.7-2.1-3-2.7-5.7-1-8 1.9-2.6 5.5-3 8.8-0.6 1.7 1.3 2.7 2.6 3.2 3.5l-1.9 1.4c-0.3-0.7-1.1-2-2.6-3.1-2.3-1.7-4.2-0.9-5 0.2-1.1 1.6-0.7 3.1 1 5.7 2.1 3.2 2.5 5.6 0.7 8.1-1.9 2.6-5.5 3.5-9.5 0.6-1.6-1.2-3.1-3-3.5-4.2z"/><path class="b" d="m572.3 45.8c1.2-1 2.1-1.9 3-2.7l1.6 1.8-1.8 1.7 0.1 0.1c1.6-0.3 3.6-0.1 5.2 1.8 1.3 1.6 1.4 3.5 0.5 5.2 0.9-0.2 1.8-0.2 2.6 0 1.1 0.2 2 0.7 3 1.8 1.3 1.5 2.2 4.6-1.7 8l-6.7 5.8-1.7-2 6.5-5.5c2.2-1.9 2.8-3.8 1.4-5.5-1-1.2-2.7-1.4-4-0.8-0.4 0.1-0.8 0.4-1.2 0.7l-7 6.1-1.7-2 6.8-5.9c1.8-1.6 2.4-3.5 1.1-5.1-1.1-1.3-3-1.4-4.3-0.8-0.4 0.1-0.8 0.4-1.2 0.7l-6.9 5.9-1.7-2z"/><path class="b" d="m581.9 76.8l13.3-7 1.3 2.4-13.3 7zm18.5-6.2c-0.8 0.5-1.8 0.2-2.3-0.8-0.5-0.9-0.1-1.8 0.7-2.2 0.9-0.5 1.8-0.2 2.3 0.7 0.5 0.9 0.1 1.8-0.7 2.3z"/><path class="b" d="m607.6 80l0.9 2.6-20.8 7.4-0.9-2.6z"/><path fill-rule="evenodd" class="b" d="m597.5 98.9c-3.6 0.6-4.8 3.2-4.4 5.9 0.3 1.9 0.8 3.1 1.4 4l-1.9 0.7c-0.6-0.9-1.3-2.4-1.7-4.8-0.7-4.6 1.9-7.8 6.4-8.4 4.5-0.7 8.4 1.5 9.1 5.8 0.7 4.9-3.4 6.8-6.1 7.2-0.6 0.1-1 0.1-1.3 0.1zm3.1 7.6c1.7-0.2 4.3-1.4 3.8-4.4-0.4-2.7-3.1-3.6-5-3.5z"/><path fill-rule="evenodd" class="c" d="m498.3 252.6c-2.8 2.9-6.8 4.7-11.1 4.7h-5.7c-2.6 0-5.4-0.7-7.9-1.8-2.3-1-4.5-2.6-6.1-4.4l-0.4-0.4-54.7-63.8v60.4c0 5.6-4.5 10.1-10.1 10.1h-5.7c-5.6 0-10.1-4.5-10.1-10.1v-79.3c0-4.3 1.8-8.2 4.7-11.1l0.1-0.1c2.8-2.8 6.7-4.5 11-4.5h5.6c2.6 0 5.3 0.7 7.8 1.8 2.4 1.1 4.7 2.7 6.5 4.5l55 64.2c7.5-15.2 17.1-15.9 25.7-37.9v56.6c-0.1 4.4-1.8 8.3-4.6 11.1z"/><path fill-rule="evenodd" class="c" d="m445.1 53.9c-18.2 8 3 74.1 20.8 76.7 15.5 2.2 36.2-18.2 46-27.3-12 16.2-29.1 36.2-46.2 38.3-30.5 3.8-49.1-75.8-33.9-92 3.8-4 9.7-6.5 18.3-6.9 19.7 1.1 24.2 17 45.5 11.9-23.4 9.5-31.2-1.9-45.3-1.8-2 0-3.7 0.3-5.2 1.1zm29.6 164.5c-5.8-37.8 32.5-41.8 34.8-71.9-5.3 20.5-43.7 37.6-41.5 54.4-4.3-10.5-1.2-2.7-5.5-13.3-7.3-21.5 2-32.8 14.6-42.8 22-17.5 52.2-41.4 51.5-72.7-0.2-7.8-3.4-14.7-11.5-19.3-8.7-5.1-22.3-6.2-40.1-4.6 16.6-7.4 33.7-9.2 46.3-4.9 15.2 5.1 20.6 15.2 20.1 27.2-1.5 36.5-34.6 61.7-60.2 82.8-8.5 7-14.8 15.1-13.6 27 7.6-13.2 39-37.3 40.7-45.3 12.6 44.3-21 48.1-35.6 83.4zm34.1-164.9c-10.9 17-24.4 18.3-40 6.4 13.8 4.3 27.3 4.2 40-6.4z"/><path fill-rule="evenodd" class="c" d="m445.3 283.1c200.3 0 363.7-0.8 363.7-1.8 0-1-163.4-1.8-363.7-1.8-200.3 0-363.7 0.8-363.7 1.8 0 1 163.4 1.8 363.7 1.8z"/><path class="b" d="m899.9 112.5h-9v-5.1h24.3v5.1h-9v24.5h-6.3z"/><path class="b" d="m944.2 125.8c0-5.1 0.1-10.7 0.2-14.1h-0.2c-1.4 6-4.4 16-7.3 25.2h-5.3c-2.2-8.1-5.3-19.5-6.6-25.3h-0.2c0.3 3.5 0.4 9.6 0.4 14.7v10.7h-5.7v-29.6h9.3c2.4 7.8 5 17.6 5.9 22 0.7-3.8 4.1-14.3 6.6-22h9v29.6h-6v-11.2z"/></svg>