<?xml version="1.0" encoding="utf-8"?>
<!-- Generator: Adobe Illustrator 24.3.0, SVG Export Plug-In . SVG Version: 6.00 Build 0)  -->
<svg version="1.1" id="Layer_1" xmlns="http://www.w3.org/2000/svg" xmlns:xlink="http://www.w3.org/1999/xlink" x="0px" y="0px"
	 viewBox="0 0 1080 768" style="enable-background:new 0 0 1080 768;" xml:space="preserve">
<style type="text/css">
	.st0{fill-rule:evenodd;clip-rule:evenodd;fill:#FFFFFF;}
	.st1{fill-rule:evenodd;clip-rule:evenodd;fill:#007490;}
	.st2{fill:#007490;}
	.st3{fill-rule:evenodd;clip-rule:evenodd;fill:#ED7F22;}
</style>
<g>
	<g>
		<g>
			<g>
				<path class="st0" d="M572.5,411.7c-7.8,25.2-21.3,21.1-20.4,49.7C559.6,439.6,567.5,448.6,572.5,411.7z"/>
			</g>
			<g>
				<path class="st1" d="M956.9,472.6c-2.8,2.9-6.8,4.7-11.1,4.7h-5.7c-2.6,0-5.4-0.7-7.9-1.8c-2.3-1-4.5-2.6-6.1-4.4l-0.4-0.4
					l-54.7-63.8v60.4c0,5.6-4.5,10.1-10.1,10.1h-5.7c-5.6,0-10.1-4.5-10.1-10.1V388c0-4.3,1.8-8.2,4.7-11.1l0.1-0.1
					c2.8-2.8,6.7-4.5,11-4.5h5.6c2.6,0,5.3,0.7,7.8,1.8c2.4,1.1,4.7,2.7,6.5,4.5l55,64.2v-60.5c0-5.6,4.5-10.1,10.1-10.1h5.6
					c5.6,0,10.1,4.5,10.1,10.1v79.1C961.5,465.9,959.8,469.8,956.9,472.6L956.9,472.6L956.9,472.6z M742.2,399.4v12.5h64.7v-12.5
					c0-0.4-0.1-0.8-0.4-1c-0.2-0.2-0.5-0.4-0.9-0.4h-62.3c-0.4,0-0.7,0.1-0.9,0.3C742.4,398.6,742.2,399,742.2,399.4L742.2,399.4z
					 M743.5,372.4h62.3c7.4,0,14.1,3.1,19,8c4.9,4.9,7.9,11.6,7.9,19.1v67.8c0,5.6-4.5,10.1-10.1,10.1H817
					c-5.6,0-10.1-4.5-10.1-10.1v-29.5h-64.7v29.5c0,5.6-4.5,10.1-10.1,10.1h-5.7c-5.6,0-10.1-4.5-10.1-10.1v-67.8
					c0-7.5,3-14.2,7.9-19.1C729.2,375.4,736,372.4,743.5,372.4L743.5,372.4z M613.4,398.1v53.4h63.5c0.3,0,0.7-0.1,0.9-0.4
					c0.2-0.2,0.4-0.5,0.4-0.9v-50.9c0-0.4-0.1-0.8-0.4-1c-0.2-0.2-0.5-0.4-0.9-0.4H613.4L613.4,398.1z M695.9,469.4
					c-4.9,4.9-11.6,8-19,8h-79.2c-5.6,0-10.1-4.5-10.1-10.1v-84.8c0-5.6,4.5-10.1,10.1-10.1h79.2c7.4,0,14.1,3.1,19,8
					c4.9,4.9,7.9,11.6,7.9,19.1v50.9C703.8,457.7,700.8,464.5,695.9,469.4L695.9,469.4z M354.6,399.4v12.5h64.7v-12.5
					c0-0.4-0.1-0.8-0.4-1c-0.2-0.2-0.5-0.4-0.9-0.4h-62.3c-0.4,0-0.7,0.1-0.9,0.3C354.7,398.6,354.6,399,354.6,399.4L354.6,399.4z
					 M355.8,372.4h62.3c7.4,0,14.1,3.1,19,8c4.9,4.9,7.9,11.6,7.9,19.1v67.8c0,5.6-4.5,10.1-10.1,10.1h-5.6
					c-5.6,0-10.1-4.5-10.1-10.1v-29.5h-64.7v29.5c0,5.6-4.5,10.1-10.1,10.1h-5.7c-5.6,0-10.1-4.5-10.1-10.1v-67.8
					c0-7.5,3-14.2,7.9-19.1C341.6,375.4,348.4,372.4,355.8,372.4L355.8,372.4z M225.8,437.8v29.5c0,5.6-4.5,10.1-10.1,10.1H210
					c-5.6,0-10.1-4.5-10.1-10.1v-84.8c0-5.6,4.5-10.1,10.1-10.1h79.2c7.4,0,14.1,3.1,19,8c4.9,4.9,7.9,11.6,7.9,19.1v11.3
					c0,7.4-3,14.2-7.9,19.1c-4.9,4.9-11.6,8-19,8L225.8,437.8L225.8,437.8z M225.8,398.1V412h63.5c0.3,0,0.6-0.1,0.9-0.4
					s0.4-0.5,0.4-0.9v-11.3c0-0.4-0.1-0.8-0.4-1c-0.2-0.2-0.5-0.4-0.9-0.4L225.8,398.1L225.8,398.1z M179.5,469.4
					c-4.9,4.9-11.6,8-19,8H84.1c-5.6,0-10.1-4.5-10.1-10.1v-5.7c0-5.6,4.5-10.1,10.1-10.1h76.4c0.3,0,0.7-0.1,0.9-0.4
					c0.2-0.2,0.4-0.5,0.4-0.9V439c0-0.3-0.1-0.6-0.4-0.9c-0.2-0.2-0.5-0.4-0.9-0.4H98.2c-7.5,0-14.2-3-19.1-7.9
					c-4.9-4.9-7.9-11.7-7.9-19.1v-11.3c0-7.5,3-14.2,7.9-19.1c4.9-4.9,11.7-7.9,19.1-7.9h76.4c5.6,0,10.1,4.5,10.1,10.1v5.6
					c0,5.6-4.5,10.1-10.1,10.1H98.2c-0.4,0-0.7,0.1-0.9,0.3c-0.2,0.2-0.4,0.6-0.4,1v11.3c0,0.3,0.1,0.7,0.4,0.9
					c0.2,0.2,0.5,0.4,0.9,0.4h62.3c7.4,0,14.1,3.1,19,8c4.9,4.9,7.9,11.6,7.9,19.1v11.3C187.4,457.7,184.3,464.5,179.5,469.4z"/>
			</g>
			<g>
				<path class="st2" d="M162.4,546.8v-28.5h6.3c4.1,0,6.9,0.2,8.6,0.6c1.7,0.4,3.1,1.1,4.3,2.1c1.6,1.3,2.9,2.9,3.7,4.8
					c0.9,2,1.3,4.2,1.3,6.8c0,2.5-0.4,4.8-1.3,6.7c-0.9,2-2.1,3.6-3.7,4.8c-1.2,1-2.7,1.6-4.3,2.1c-1.6,0.4-4.1,0.6-7.4,0.6h-1.2
					L162.4,546.8L162.4,546.8L162.4,546.8z M167,542.6h3.9c2.1,0,3.7-0.1,4.8-0.4c1.1-0.3,2-0.8,2.8-1.4c1.1-0.9,1.9-2.1,2.4-3.4
					c0.5-1.4,0.8-3,0.8-4.8c0-1.8-0.3-3.4-0.8-4.8c-0.5-1.4-1.4-2.5-2.4-3.4c-0.8-0.7-1.8-1.2-2.9-1.4c-1.1-0.3-2.9-0.4-5.3-0.4
					h-1.7H167L167,542.6L167,542.6z"/>
				<path class="st2" d="M195.6,546.8v-28.5h15.9v3.9h-11.3v7.1h11.3v4.1h-11.3v9.2h11.3v4.1L195.6,546.8L195.6,546.8z"/>
				<path class="st2" d="M220.5,546.8v-29.6l18.1,17.4c0.5,0.5,1,1,1.5,1.6c0.5,0.6,1,1.2,1.6,1.9v-19.8h4.3v29.6l-18.5-17.7
					c-0.5-0.5-1-1-1.4-1.5c-0.5-0.5-0.9-1.1-1.3-1.7v19.8L220.5,546.8L220.5,546.8L220.5,546.8z"/>
				<path class="st2" d="M265.4,522.2v24.6h-4.6v-24.6h-7.6v-3.9H273v3.9H265.4z"/>
				<path class="st2" d="M296.1,546.8l-3.2-7.3h-11.3l-3.3,7.3h-4.9l13.8-29.6l13.8,29.6H296.1L296.1,546.8z M283.3,535.6h7.9
					l-2.9-6.5c-0.2-0.4-0.3-0.9-0.5-1.4c-0.2-0.5-0.4-1.1-0.5-1.8c-0.2,0.6-0.3,1.2-0.5,1.7s-0.4,1-0.5,1.5L283.3,535.6z"/>
				<path class="st2" d="M307.4,546.8v-28.5h4.6v24.4h10.4v4.1H307.4z"/>
				<path class="st2" d="M341.9,546.8v-28.5h4.6v28.5H341.9z"/>
				<path class="st2" d="M380.1,532.7c-0.1-0.2-0.1-0.8-0.2-1.8c-0.1-0.8-0.2-1.5-0.3-2.1c-0.1,0.6-0.3,1.3-0.5,2
					c-0.2,0.6-0.5,1.3-0.8,2l-7.5,15.2l-7.5-15.5c-0.3-0.6-0.6-1.2-0.8-1.9c-0.2-0.6-0.4-1.2-0.6-1.8c0,0.6-0.1,1.2-0.1,1.9
					c-0.1,0.7-0.2,1.3-0.4,2.1l-3.1,14h-4.3l6.7-29.7l8.4,18c0.1,0.3,0.3,0.8,0.6,1.4s0.6,1.5,1,2.5c0.3-0.8,0.7-1.9,1.3-3.1
					c0.2-0.3,0.3-0.6,0.4-0.8l8.2-18l6.9,29.7h-4.3L380.1,532.7z"/>
				<path class="st2" d="M399.3,534v12.8H395v-28.5h7c2.1,0,3.6,0.1,4.6,0.3c1,0.2,1.8,0.6,2.6,1.1c0.9,0.7,1.6,1.6,2.1,2.7
					c0.5,1.1,0.8,2.4,0.8,3.7s-0.2,2.6-0.8,3.7s-1.2,2-2.1,2.7c-0.7,0.5-1.6,0.9-2.6,1.1s-2.5,0.3-4.6,0.3h-0.9L399.3,534L399.3,534
					z M399.6,530.2h1.2c2.6,0,4.3-0.3,5.1-0.8s1.3-1.5,1.3-3c0-1.5-0.5-2.6-1.4-3.2c-0.9-0.6-2.6-0.9-5.1-0.9h-1.2L399.6,530.2
					L399.6,530.2z"/>
				<path class="st2" d="M419.9,546.8v-28.5h4.6v24.4h10.4v4.1H419.9z"/>
				<path class="st2" d="M461.1,546.8l-3.2-7.3h-11.3l-3.3,7.3h-4.9l13.8-29.6l13.8,29.6H461.1L461.1,546.8z M448.3,535.6h7.9
					l-2.9-6.5c-0.2-0.4-0.3-0.9-0.5-1.4c-0.2-0.5-0.4-1.1-0.5-1.8c-0.2,0.6-0.3,1.2-0.5,1.7s-0.4,1-0.5,1.5L448.3,535.6z"/>
				<path class="st2" d="M472.4,546.8v-29.6l18.1,17.4c0.5,0.5,1,1,1.5,1.6c0.5,0.6,1,1.2,1.6,1.9v-19.8h4.3v29.6l-18.5-17.7
					c-0.5-0.5-1-1-1.4-1.5c-0.5-0.5-0.9-1.1-1.3-1.7v19.8L472.4,546.8L472.4,546.8L472.4,546.8z"/>
				<path class="st2" d="M517.3,522.2v24.6h-4.6v-24.6h-7.6v-3.9h19.7v3.9H517.3z"/>
				<path class="st2" d="M562,546.8l-2.3-2.7c-1.4,1.2-2.7,2-4.2,2.6c-1.4,0.6-3,0.8-4.7,0.8c-2.6,0-4.8-0.8-6.4-2.3
					s-2.5-3.5-2.5-5.9c0-1.6,0.5-3.1,1.5-4.5c1-1.4,2.6-2.7,4.8-4.1l-1.1-1.2c-0.6-0.7-1.1-1.4-1.5-2.3c-0.3-0.8-0.5-1.6-0.5-2.5
					c0-1.9,0.7-3.4,2.1-4.6c1.4-1.2,3.1-1.8,5.3-1.8c2.1,0,3.8,0.5,5.1,1.6c1.3,1.1,1.9,2.5,1.9,4.4c0,1.4-0.4,2.7-1.3,3.8
					c-0.9,1.1-2.3,2.3-4.2,3.4l5.9,6.9c0.6-0.6,1.2-1.2,1.7-2c0.6-0.7,1.2-1.6,1.9-2.5l2.7,2.9c-0.5,0.8-1.1,1.6-1.7,2.4
					c-0.6,0.7-1.3,1.4-2.1,2.1l4.8,5.4L562,546.8L562,546.8z M557.1,541l-6.2-7.2l-0.7,0.5c-1.4,0.9-2.3,1.7-2.8,2.4
					c-0.5,0.7-0.8,1.5-0.8,2.4c0,1.3,0.4,2.3,1.3,3.2c0.9,0.9,2,1.3,3.3,1.3c1,0,2-0.2,3-0.7C555,542.6,556,541.9,557.1,541z
					 M551.9,528.6l1.1-0.6c0.7-0.4,1.3-0.9,1.6-1.5c0.4-0.6,0.5-1.2,0.5-1.9c0-0.8-0.2-1.5-0.7-2c-0.5-0.5-1.1-0.8-1.9-0.8
					c-0.9,0-1.6,0.3-2.1,0.8c-0.5,0.5-0.8,1.2-0.8,2c0,0.4,0.1,0.8,0.2,1.2c0.1,0.4,0.4,0.7,0.7,1.1L551.9,528.6z"/>
				<path class="st2" d="M586.6,546.8v-28.5h4.6v24.4h10.4v4.1H586.6z"/>
				<path class="st2" d="M627.8,546.8l-3.2-7.3h-11.3l-3.3,7.3h-4.9l13.8-29.6l13.8,29.6H627.8L627.8,546.8z M615,535.6h7.9
					l-2.9-6.5c-0.2-0.4-0.3-0.9-0.5-1.4c-0.2-0.5-0.4-1.1-0.5-1.8c-0.2,0.6-0.3,1.2-0.5,1.7s-0.4,1-0.5,1.5L615,535.6z"/>
				<path class="st2" d="M637.4,541.1l3.7-1.7c0.4,1.3,1,2.2,1.9,2.9c0.9,0.7,2.1,1,3.6,1c1.4,0,2.5-0.4,3.3-1.1s1.2-1.8,1.2-3.1
					c0-1.7-1.4-3.2-4.2-4.5c-0.4-0.2-0.7-0.3-0.9-0.4c-3.1-1.5-5.2-2.9-6.3-4.2c-1-1.2-1.6-2.8-1.6-4.5c0-2.3,0.8-4.2,2.4-5.6
					c1.6-1.4,3.6-2.2,6.2-2.2c2.1,0,3.9,0.4,5.3,1.2s2.4,2,2.9,3.5l-3.6,1.9c-0.6-0.9-1.2-1.6-1.9-2c-0.7-0.4-1.5-0.6-2.3-0.6
					c-1.2,0-2.2,0.3-3,1c-0.7,0.6-1.1,1.5-1.1,2.6c0,1.7,1.6,3.3,4.8,4.8c0.2,0.1,0.4,0.2,0.6,0.3c2.8,1.3,4.8,2.6,5.8,3.8
					c1.1,1.2,1.6,2.8,1.6,4.6c0,2.7-0.9,4.8-2.6,6.4c-1.7,1.6-4,2.4-6.9,2.4c-2.4,0-4.4-0.6-6-1.7
					C638.9,544.7,637.9,543.1,637.4,541.1z"/>
				<path class="st2" d="M664.6,546.8v-28.5h15.9v3.9h-11.3v7.1h11.3v4.1h-11.3v9.2h11.3v4.1L664.6,546.8L664.6,546.8z"/>
				<path class="st2" d="M693.9,534v12.7h-4.3v-28.5h6.5c1.9,0,3.4,0.1,4.4,0.4c1,0.2,1.9,0.7,2.7,1.2c0.9,0.7,1.6,1.6,2,2.7
					c0.5,1.1,0.7,2.3,0.7,3.6c0,2.3-0.6,4.1-1.7,5.4c-1.1,1.3-2.7,2.1-4.9,2.3l9.8,13h-5.2l-9.5-12.7L693.9,534L693.9,534z
					 M694.2,530.4h0.8c2.5,0,4.1-0.3,4.9-0.9c0.8-0.6,1.2-1.6,1.2-3c0-1.6-0.4-2.7-1.3-3.3c-0.9-0.6-2.5-1-4.8-1h-0.8L694.2,530.4
					L694.2,530.4z"/>
				<path class="st2" d="M750.5,525.2c-1.3-1.1-2.7-2-4.2-2.5c-1.5-0.6-3-0.8-4.6-0.8c-3.1,0-5.7,1-7.6,3c-2,2-2.9,4.6-2.9,7.8
					c0,3.1,1,5.6,2.8,7.6c1.9,2,4.3,3,7.2,3c1.7,0,3.3-0.3,4.8-0.9c1.5-0.6,3-1.5,4.4-2.7v5.2c-1.2,0.9-2.6,1.6-4.1,2
					c-1.5,0.4-3.1,0.7-4.8,0.7c-2.2,0-4.2-0.4-6-1.1c-1.9-0.7-3.5-1.8-4.9-3.2c-1.4-1.4-2.5-3-3.2-4.8c-0.7-1.9-1.1-3.8-1.1-5.9
					s0.4-4.1,1.1-5.9c0.7-1.8,1.8-3.5,3.2-4.8c1.4-1.4,3-2.5,4.9-3.2c1.8-0.7,3.8-1.1,5.9-1.1c1.7,0,3.3,0.2,4.8,0.7
					c1.5,0.5,3,1.2,4.4,2.2L750.5,525.2z"/>
				<path class="st2" d="M759.9,546.8v-28.5h4.6v24.4h10.4v4.1H759.9z"/>
				<path class="st2" d="M782.4,546.8v-28.5h4.6v28.5H782.4z"/>
				<path class="st2" d="M797.4,546.8v-29.6l18.1,17.4c0.5,0.5,1,1,1.5,1.6c0.5,0.6,1,1.2,1.6,1.9v-19.8h4.3v29.6l-18.5-17.7
					c-0.5-0.5-1-1-1.4-1.5c-0.5-0.5-0.9-1.1-1.3-1.7v19.8L797.4,546.8L797.4,546.8L797.4,546.8z"/>
				<path class="st2" d="M833.2,546.8v-28.5h4.6v28.5H833.2z"/>
				<path class="st2" d="M871,525.2c-1.3-1.1-2.7-2-4.2-2.5c-1.5-0.6-3-0.8-4.6-0.8c-3.1,0-5.7,1-7.6,3c-2,2-2.9,4.6-2.9,7.8
					c0,3.1,1,5.6,2.8,7.6c1.9,2,4.3,3,7.2,3c1.7,0,3.3-0.3,4.8-0.9c1.5-0.6,3-1.5,4.4-2.7v5.2c-1.2,0.9-2.6,1.6-4.1,2
					c-1.5,0.4-3.1,0.7-4.8,0.7c-2.2,0-4.2-0.4-6-1.1c-1.9-0.7-3.5-1.8-4.9-3.2c-1.4-1.4-2.5-3-3.2-4.8c-0.7-1.9-1.1-3.8-1.1-5.9
					s0.4-4.1,1.1-5.9s1.8-3.5,3.2-4.8c1.4-1.4,3-2.5,4.9-3.2c1.8-0.7,3.8-1.1,5.9-1.1c1.7,0,3.3,0.2,4.8,0.7c1.5,0.5,3,1.2,4.4,2.2
					L871,525.2z"/>
			</g>
			<g>
				<path class="st2" d="M438.1,325.3l-21.6,1.2l0.5-2.8l10.9-0.4c2.7-0.1,5.3-0.2,7.4-0.1l0-0.1c-2-0.7-4.3-1.9-6.8-3.1l-9.8-4.8
					l0.5-2.8l10.9-0.5c2.6-0.1,5.1-0.2,7.3-0.1l0-0.1c-2.2-0.9-4.3-1.9-6.8-3l-9.8-4.7l0.5-2.7l19.4,9.8l-0.5,2.8l-11.2,0.5
					c-2.7,0.1-4.8,0.2-7,0l0,0.1c2,0.8,3.9,1.6,6.4,2.9l10.1,5L438.1,325.3z"/>
				<path class="st2" d="M439.3,296.2c3.3,1.7,5.7,0.3,7-2.1c0.9-1.7,1.2-2.9,1.3-4l1.9,0.5c-0.1,1.1-0.4,2.7-1.5,4.9
					c-2.2,4.1-6.2,5.1-10.2,3c-4-2.1-5.9-6.2-3.9-10c2.3-4.3,6.7-3.5,9.2-2.2c0.5,0.3,0.9,0.5,1.1,0.7L439.3,296.2z M441.3,288.2
					c-1.5-0.8-4.3-1.5-5.7,1.3c-1.3,2.4,0.4,4.7,2,5.8L441.3,288.2z"/>
				<path class="st2" d="M469.3,256.9c-2-2.1-4.4-4.7-6.1-6.7l-0.1,0.1c1,2.3,2.1,4.9,3.1,7.8l3.7,10.1l-1.6,1.3l-9-5.4
					c-2.7-1.6-5.1-3.1-7.1-4.6l0,0c1.6,2,3.8,4.8,5.7,7.3l5.4,7.2l-2,1.7l-12.4-16.9l2.6-2.2l9.3,5.4c2.3,1.4,4.4,2.7,6.2,4l0.1-0.1
					c-1-2-1.9-4.2-2.9-6.8l-3.7-10.1l2.6-2.2l14.5,15.1l-2,1.7L469.3,256.9z"/>
				<path class="st2" d="M492.3,253.9l-1.1-1.6l-0.1,0c-0.2,1.4-1.1,3.1-3,4.1c-2.7,1.4-5.1,0.2-6.1-1.7c-1.7-3.2,0.3-6.5,5.4-9.1
					l-0.1-0.3c-0.6-1.1-1.9-2.9-4.6-1.5c-1.2,0.6-2.3,1.7-3,2.8l-1.4-1.3c0.7-1.3,2.1-2.6,3.8-3.5c4.1-2.1,6.5,0.1,7.9,2.8l2.6,5
					c0.6,1.2,1.2,2.3,1.9,3.1L492.3,253.9z M488.4,247.3c-2.7,1.3-5.4,3.4-4.1,6c0.8,1.6,2.3,1.8,3.5,1.1c1.7-0.9,2.3-2.6,2.1-3.9
					c0-0.3-0.1-0.6-0.3-0.8L488.4,247.3z"/>
				<path class="st2" d="M502.4,240.9L502.4,240.9c0.2-0.6,0.5-1.4,0.8-2.1l2.5-6.3l3.1-1l-3.5,7.7l9.1,6.3l-3.2,1.1l-7.2-5.2
					l-0.8,1.9l1.8,5.4l-2.6,0.9l-7-20.9l2.6-0.9L502.4,240.9z"/>
				<path class="st2" d="M520.9,236.9c0.7,3.6,3.3,4.7,6,4.3c1.9-0.3,3-0.9,4-1.5l0.8,1.9c-0.9,0.6-2.4,1.4-4.8,1.8
					c-4.6,0.8-7.8-1.7-8.6-6.2s1.2-8.4,5.6-9.2c4.8-0.8,6.9,3.2,7.3,5.9c0.1,0.5,0.1,1,0.1,1.3L520.9,236.9z M528.5,233.6
					c-0.3-1.7-1.5-4.3-4.5-3.7c-2.7,0.5-3.5,3.2-3.4,5.1L528.5,233.6z"/>
				<path class="st2" d="M555.1,241.3l0.5-8.9l-6-12.4l3.1,0.2l2.6,5.9c0.7,1.6,1.3,2.9,1.9,4.4h0.1c0.7-1.3,1.5-2.7,2.3-4.2
					l3.3-5.6l3.1,0.2l-7.7,11.6l-0.5,8.9L555.1,241.3z"/>
				<path class="st2" d="M584,237.7c-1.1,5.5-5.3,7.1-8.9,6.4c-4-0.8-6.5-4.3-5.6-9c1-4.9,4.8-7.2,8.9-6.4
					C582.6,229.5,584.9,233.2,584,237.7z M572.3,235.5c-0.6,3.2,0.7,6,3.4,6.6c2.6,0.5,4.9-1.5,5.6-4.8c0.5-2.5-0.1-5.9-3.3-6.5
					C574.8,230.1,572.8,232.7,572.3,235.5z"/>
				<path class="st2" d="M603.2,248c-0.5,1.5-1,2.7-1.3,3.9l-2.3-0.9l0.7-2.3l-0.1,0c-1.1,0.9-3.1,1.8-5.6,0.9
					c-2.2-0.8-4.4-3.1-2.5-8l3.1-8.2l2.6,1l-2.9,7.8c-1,2.7-0.9,4.8,1.5,5.7c1.7,0.6,3.4-0.1,4.2-1.1c0.3-0.3,0.6-0.8,0.7-1.2
					l3.2-8.6l2.6,1L603.2,248z"/>
				<path class="st2" d="M621.2,258.5c0.5,1.3,1.6,2.9,3.1,4c2.2,1.6,4.4,1.4,5.6-0.3c1.1-1.6,0.9-3.1-0.8-5.7c-2.1-3-2.7-5.7-1-8
					c1.9-2.6,5.5-3,8.8-0.6c1.7,1.3,2.7,2.6,3.2,3.5l-1.9,1.4c-0.3-0.7-1.1-2-2.6-3.1c-2.3-1.7-4.2-0.9-5,0.2
					c-1.1,1.6-0.7,3.1,1,5.7c2.1,3.2,2.5,5.6,0.7,8.1c-1.9,2.6-5.5,3.5-9.5,0.6c-1.6-1.2-3.1-3-3.5-4.2L621.2,258.5z"/>
				<path class="st2" d="M643.3,265.8c1.2-1,2.1-1.9,3-2.7l1.6,1.8l-1.8,1.7l0.1,0.1c1.6-0.3,3.6-0.1,5.2,1.8
					c1.3,1.6,1.4,3.5,0.5,5.2l0,0c0.9-0.2,1.8-0.2,2.6,0c1.1,0.2,2,0.7,3,1.8c1.3,1.5,2.2,4.6-1.7,8l-6.7,5.8l-1.7-2l6.5-5.5
					c2.2-1.9,2.8-3.8,1.4-5.5c-1-1.2-2.7-1.4-4-0.8c-0.4,0.1-0.8,0.4-1.2,0.7l-7,6.1l-1.7-2l6.8-5.9c1.8-1.6,2.4-3.5,1.1-5.1
					c-1.1-1.3-3-1.4-4.3-0.8c-0.4,0.1-0.8,0.4-1.2,0.7l-6.9,5.9l-1.7-2L643.3,265.8z"/>
				<path class="st2" d="M652.9,296.8l13.3-7l1.3,2.4l-13.3,7L652.9,296.8z M671.4,290.6c-0.8,0.5-1.8,0.2-2.3-0.8
					c-0.5-0.9-0.1-1.8,0.7-2.2c0.9-0.5,1.8-0.2,2.3,0.7C672.6,289.2,672.2,290.1,671.4,290.6z"/>
				<path class="st2" d="M678.6,300l0.9,2.6l-20.8,7.4l-0.9-2.6L678.6,300z"/>
				<path class="st2" d="M668.5,318.9c-3.6,0.6-4.8,3.2-4.4,5.9c0.3,1.9,0.8,3.1,1.4,4l-1.9,0.7c-0.6-0.9-1.3-2.4-1.7-4.8
					c-0.7-4.6,1.9-7.8,6.4-8.4c4.5-0.7,8.4,1.5,9.1,5.8c0.7,4.9-3.4,6.8-6.1,7.2c-0.6,0.1-1,0.1-1.3,0.1L668.5,318.9z M671.6,326.5
					c1.7-0.2,4.3-1.4,3.8-4.4c-0.4-2.7-3.1-3.6-5-3.5L671.6,326.5z"/>
			</g>
		</g>
		<g>
			<g>
				<g>
					<path class="st3" d="M569.3,472.6c-2.8,2.9-6.8,4.7-11.1,4.7h-5.7c-2.6,0-5.4-0.7-7.9-1.8c-2.3-1-4.5-2.6-6.1-4.4l-0.4-0.4
						l-54.7-63.8v60.4c0,5.6-4.5,10.1-10.1,10.1h-5.7c-5.6,0-10.1-4.5-10.1-10.1V388c0-4.3,1.8-8.2,4.7-11.1l0.1-0.1
						c2.8-2.8,6.7-4.5,11-4.5h5.6c2.6,0,5.3,0.7,7.8,1.8c2.4,1.1,4.7,2.7,6.5,4.5l55,64.2c7.5-15.2,17.1-15.9,25.7-37.9v56.6
						C573.8,465.9,572.1,469.8,569.3,472.6L569.3,472.6z"/>
				</g>
				<g>
					<path class="st3" d="M579.8,273.5c-10.9,17-24.4,18.3-40,6.4C553.6,284.2,567.1,284.1,579.8,273.5L579.8,273.5z M521.3,272.8
						c14.1-0.1,21.9,11.3,45.3,1.8c-21.3,5.1-25.8-10.8-45.5-11.9c-8.6,0.4-14.5,2.9-18.3,6.9c-15.2,16.2,3.4,95.8,33.9,92
						c17.1-2.1,34.2-22.1,46.2-38.3c-9.8,9.1-30.5,29.5-46,27.3c-17.8-2.6-39-68.7-20.8-76.7C517.6,273.1,519.3,272.8,521.3,272.8
						L521.3,272.8z M581.3,355c-1.7,8-33.1,32.1-40.7,45.3c-1.2-11.9,5.1-20,13.6-27c25.6-21.1,58.7-46.3,60.2-82.8
						c0.5-12-4.9-22.1-20.1-27.2c-12.6-4.3-29.7-2.5-46.3,4.9c17.8-1.6,31.4-0.5,40.1,4.6c8.1,4.6,11.3,11.5,11.5,19.3
						c0.7,31.3-29.5,55.2-51.5,72.7c-12.6,10-21.9,21.3-14.6,42.8c4.3,10.6,1.2,2.8,5.5,13.3c-2.2-16.8,36.2-33.9,41.5-54.4
						c-2.3,30.1-40.6,34.1-34.8,71.9C560.3,403.1,593.9,399.3,581.3,355z"/>
				</g>
			</g>
			<g>
				<path class="st3" d="M516.3,503.1c200.3,0,363.7-0.8,363.7-1.8s-163.4-1.8-363.7-1.8c-200.3,0-363.7,0.8-363.7,1.8
					S316,503.1,516.3,503.1z"/>
			</g>
		</g>
	</g>
	<g>
		<path class="st2" d="M970.9,332.5h-9v-5.1h24.3v5.1h-9V357h-6.3V332.5z"/>
		<path class="st2" d="M1015.2,345.8c0-5.1,0.1-10.7,0.2-14.1h-0.2c-1.4,6-4.4,16-7.3,25.2h-5.3c-2.2-8.1-5.3-19.5-6.6-25.3h-0.2
			c0.3,3.5,0.4,9.6,0.4,14.7V357h-5.7v-29.6h9.3c2.4,7.8,5,17.6,5.9,22h0c0.7-3.8,4.1-14.3,6.6-22h9V357h-6V345.8z"/>
	</g>
</g>
</svg>
