<?xml version="1.0" encoding="utf-8"?>
<!-- Generator: Adobe Illustrator 24.3.0, SVG Export Plug-In . SVG Version: 6.00 Build 0)  -->
<svg version="1.1" id="Layer_1" xmlns="http://www.w3.org/2000/svg" xmlns:xlink="http://www.w3.org/1999/xlink" x="0px" y="0px"
	 viewBox="0 0 1080 768" style="enable-background:new 0 0 1080 768;" xml:space="preserve">
<style type="text/css">
	.st0{fill-rule:evenodd;clip-rule:evenodd;fill:#FFFFFF;}
	.st1{fill-rule:evenodd;clip-rule:evenodd;fill:#007490;}
	.st2{fill:#007490;}
	.st3{fill-rule:evenodd;clip-rule:evenodd;fill:#ED7F22;}
</style>
<g>
	<g>
		<g>
			<g>
				<path class="st0" d="M565.9,411.7c-7.8,25.2-21.3,21.1-20.4,49.7C553,439.6,560.9,448.6,565.9,411.7z"/>
			</g>
			<g>
				<path class="st1" d="M950.3,472.6c-2.8,2.9-6.8,4.7-11.1,4.7h-5.7c-2.6,0-5.4-0.7-7.9-1.8c-2.3-1-4.5-2.6-6.1-4.4l-0.4-0.4
					l-54.7-63.8v60.4c0,5.6-4.5,10.1-10.1,10.1h-5.7c-5.6,0-10.1-4.5-10.1-10.1V388c0-4.3,1.8-8.2,4.7-11.1l0.1-0.1
					c2.8-2.8,6.7-4.5,11-4.5h5.6c2.6,0,5.3,0.7,7.8,1.8c2.4,1.1,4.7,2.7,6.5,4.5l55,64.2v-60.5c0-5.6,4.5-10.1,10.1-10.1h5.6
					c5.6,0,10.1,4.5,10.1,10.1v79.1C954.8,465.9,953.1,469.8,950.3,472.6L950.3,472.6L950.3,472.6z M735.6,399.4v12.5h64.7v-12.5
					c0-0.4-0.1-0.8-0.4-1c-0.2-0.2-0.5-0.4-0.9-0.4h-62.3c-0.4,0-0.7,0.1-0.9,0.3C735.7,398.6,735.6,399,735.6,399.4L735.6,399.4z
					 M736.8,372.4h62.3c7.4,0,14.1,3.1,19,8c4.9,4.9,7.9,11.6,7.9,19.1v67.8c0,5.6-4.5,10.1-10.1,10.1h-5.6
					c-5.6,0-10.1-4.5-10.1-10.1v-29.5h-64.7v29.5c0,5.6-4.5,10.1-10.1,10.1h-5.7c-5.6,0-10.1-4.5-10.1-10.1v-67.8
					c0-7.5,3-14.2,7.9-19.1C722.6,375.4,729.4,372.4,736.8,372.4L736.8,372.4z M606.8,398.1v53.4h63.5c0.3,0,0.7-0.1,0.9-0.4
					c0.2-0.2,0.4-0.5,0.4-0.9v-50.9c0-0.4-0.1-0.8-0.4-1c-0.2-0.2-0.5-0.4-0.9-0.4H606.8L606.8,398.1z M689.3,469.4
					c-4.9,4.9-11.6,8-19,8H591c-5.6,0-10.1-4.5-10.1-10.1v-84.8c0-5.6,4.5-10.1,10.1-10.1h79.2c7.4,0,14.1,3.1,19,8
					c4.9,4.9,7.9,11.6,7.9,19.1v50.9C697.2,457.7,694.2,464.5,689.3,469.4L689.3,469.4z M348,399.4v12.5h64.7v-12.5
					c0-0.4-0.1-0.8-0.4-1c-0.2-0.2-0.5-0.4-0.9-0.4h-62.3c-0.4,0-0.7,0.1-0.9,0.3C348.1,398.6,348,399,348,399.4L348,399.4z
					 M349.2,372.4h62.3c7.4,0,14.1,3.1,19,8c4.9,4.9,7.9,11.6,7.9,19.1v67.8c0,5.6-4.5,10.1-10.1,10.1h-5.6
					c-5.6,0-10.1-4.5-10.1-10.1v-29.5H348v29.5c0,5.6-4.5,10.1-10.1,10.1h-5.7c-5.6,0-10.1-4.5-10.1-10.1v-67.8
					c0-7.5,3-14.2,7.9-19.1C335,375.4,341.8,372.4,349.2,372.4L349.2,372.4z M219.2,437.8v29.5c0,5.6-4.5,10.1-10.1,10.1h-5.7
					c-5.6,0-10.1-4.5-10.1-10.1v-84.8c0-5.6,4.5-10.1,10.1-10.1h79.2c7.4,0,14.1,3.1,19,8c4.9,4.9,7.9,11.6,7.9,19.1v11.3
					c0,7.4-3,14.2-7.9,19.1c-4.9,4.9-11.6,8-19,8L219.2,437.8L219.2,437.8z M219.2,398.1V412h63.5c0.3,0,0.6-0.1,0.9-0.4
					s0.4-0.5,0.4-0.9v-11.3c0-0.4-0.1-0.8-0.4-1c-0.2-0.2-0.5-0.4-0.9-0.4L219.2,398.1L219.2,398.1z M172.9,469.4
					c-4.9,4.9-11.6,8-19,8H77.4c-5.6,0-10.1-4.5-10.1-10.1v-5.7c0-5.6,4.5-10.1,10.1-10.1h76.4c0.3,0,0.7-0.1,0.9-0.4
					c0.2-0.2,0.4-0.5,0.4-0.9V439c0-0.3-0.1-0.6-0.4-0.9c-0.2-0.2-0.5-0.4-0.9-0.4H91.6c-7.5,0-14.2-3-19.1-7.9
					c-4.9-4.9-7.9-11.7-7.9-19.1v-11.3c0-7.5,3-14.2,7.9-19.1c4.9-4.9,11.7-7.9,19.1-7.9H168c5.6,0,10.1,4.5,10.1,10.1v5.6
					c0,5.6-4.5,10.1-10.1,10.1H91.6c-0.4,0-0.7,0.1-0.9,0.3c-0.2,0.2-0.4,0.6-0.4,1v11.3c0,0.3,0.1,0.7,0.4,0.9
					c0.2,0.2,0.5,0.4,0.9,0.4h62.3c7.4,0,14.1,3.1,19,8c4.9,4.9,7.9,11.6,7.9,19.1v11.3C180.8,457.7,177.7,464.5,172.9,469.4z"/>
			</g>
			<g>
				<path class="st2" d="M155.8,546.8v-28.5h6.3c4.1,0,6.9,0.2,8.6,0.6c1.7,0.4,3.1,1.1,4.3,2.1c1.6,1.3,2.9,2.9,3.7,4.8
					c0.9,2,1.3,4.2,1.3,6.8c0,2.5-0.4,4.8-1.3,6.7c-0.9,2-2.1,3.6-3.7,4.8c-1.2,1-2.7,1.6-4.3,2.1c-1.6,0.4-4.1,0.6-7.4,0.6H162
					L155.8,546.8L155.8,546.8L155.8,546.8z M160.4,542.6h3.9c2.1,0,3.7-0.1,4.8-0.4c1.1-0.3,2-0.8,2.8-1.4c1.1-0.9,1.9-2.1,2.4-3.4
					c0.5-1.4,0.8-3,0.8-4.8c0-1.8-0.3-3.4-0.8-4.8c-0.5-1.4-1.4-2.5-2.4-3.4c-0.8-0.7-1.8-1.2-2.9-1.4c-1.1-0.3-2.9-0.4-5.3-0.4
					h-1.7h-1.7L160.4,542.6L160.4,542.6z"/>
				<path class="st2" d="M189,546.8v-28.5h15.9v3.9h-11.3v7.1h11.3v4.1h-11.3v9.2h11.3v4.1L189,546.8L189,546.8z"/>
				<path class="st2" d="M213.9,546.8v-29.6l18.1,17.4c0.5,0.5,1,1,1.5,1.6c0.5,0.6,1,1.2,1.6,1.9v-19.8h4.3v29.6l-18.5-17.7
					c-0.5-0.5-1-1-1.4-1.5c-0.5-0.5-0.9-1.1-1.3-1.7v19.8L213.9,546.8L213.9,546.8L213.9,546.8z"/>
				<path class="st2" d="M258.8,522.2v24.6h-4.6v-24.6h-7.6v-3.9h19.7v3.9H258.8z"/>
				<path class="st2" d="M289.5,546.8l-3.2-7.3H275l-3.3,7.3h-4.9l13.8-29.6l13.8,29.6H289.5L289.5,546.8z M276.7,535.6h7.9
					l-2.9-6.5c-0.2-0.4-0.3-0.9-0.5-1.4c-0.2-0.5-0.4-1.1-0.5-1.8c-0.2,0.6-0.3,1.2-0.5,1.7s-0.4,1-0.5,1.5L276.7,535.6z"/>
				<path class="st2" d="M300.7,546.8v-28.5h4.6v24.4h10.4v4.1H300.7z"/>
				<path class="st2" d="M335.3,546.8v-28.5h4.6v28.5H335.3z"/>
				<path class="st2" d="M373.5,532.7c-0.1-0.2-0.1-0.8-0.2-1.8c-0.1-0.8-0.2-1.5-0.3-2.1c-0.1,0.6-0.3,1.3-0.5,2
					c-0.2,0.6-0.5,1.3-0.8,2l-7.5,15.2l-7.5-15.5c-0.3-0.6-0.6-1.2-0.8-1.9c-0.2-0.6-0.4-1.2-0.6-1.8c0,0.6-0.1,1.2-0.1,1.9
					c-0.1,0.7-0.2,1.3-0.4,2.1l-3.1,14h-4.3l6.7-29.7l8.4,18c0.1,0.3,0.3,0.8,0.6,1.4c0.3,0.7,0.6,1.5,1,2.5
					c0.3-0.8,0.7-1.9,1.3-3.1c0.2-0.3,0.3-0.6,0.4-0.8l8.2-18l6.9,29.7h-4.3L373.5,532.7z"/>
				<path class="st2" d="M392.7,534v12.8h-4.3v-28.5h7c2.1,0,3.6,0.1,4.6,0.3c1,0.2,1.8,0.6,2.6,1.1c0.9,0.7,1.6,1.6,2.1,2.7
					c0.5,1.1,0.8,2.4,0.8,3.7s-0.2,2.6-0.8,3.7c-0.5,1.1-1.2,2-2.1,2.7c-0.7,0.5-1.6,0.9-2.6,1.1c-1,0.2-2.5,0.3-4.6,0.3h-0.9
					L392.7,534L392.7,534z M393,530.2h1.2c2.6,0,4.3-0.3,5.1-0.8c0.9-0.6,1.3-1.5,1.3-3c0-1.5-0.5-2.6-1.4-3.2
					c-0.9-0.6-2.6-0.9-5.1-0.9H393L393,530.2L393,530.2z"/>
				<path class="st2" d="M413.2,546.8v-28.5h4.6v24.4h10.4v4.1H413.2z"/>
				<path class="st2" d="M454.5,546.8l-3.2-7.3H440l-3.3,7.3h-4.9l13.8-29.6l13.8,29.6H454.5L454.5,546.8z M441.7,535.6h7.9
					l-2.9-6.5c-0.2-0.4-0.3-0.9-0.5-1.4c-0.2-0.5-0.4-1.1-0.5-1.8c-0.2,0.6-0.3,1.2-0.5,1.7c-0.2,0.5-0.4,1-0.5,1.5L441.7,535.6z"/>
				<path class="st2" d="M465.8,546.8v-29.6l18.1,17.4c0.5,0.5,1,1,1.5,1.6c0.5,0.6,1,1.2,1.6,1.9v-19.8h4.3v29.6l-18.5-17.7
					c-0.5-0.5-1-1-1.4-1.5c-0.5-0.5-0.9-1.1-1.3-1.7v19.8L465.8,546.8L465.8,546.8L465.8,546.8z"/>
				<path class="st2" d="M510.7,522.2v24.6H506v-24.6h-7.6v-3.9h19.7v3.9H510.7z"/>
				<path class="st2" d="M555.4,546.8l-2.3-2.7c-1.4,1.2-2.7,2-4.2,2.6c-1.4,0.6-3,0.8-4.7,0.8c-2.6,0-4.8-0.8-6.4-2.3
					c-1.6-1.5-2.5-3.5-2.5-5.9c0-1.6,0.5-3.1,1.5-4.5c1-1.4,2.6-2.7,4.8-4.1l-1.1-1.2c-0.6-0.7-1.1-1.4-1.5-2.3
					c-0.3-0.8-0.5-1.6-0.5-2.5c0-1.9,0.7-3.4,2.1-4.6c1.4-1.2,3.1-1.8,5.3-1.8c2.1,0,3.8,0.5,5.1,1.6c1.3,1.1,1.9,2.5,1.9,4.4
					c0,1.4-0.4,2.7-1.3,3.8c-0.9,1.1-2.3,2.3-4.2,3.4l5.9,6.9c0.6-0.6,1.2-1.2,1.7-2c0.6-0.7,1.2-1.6,1.9-2.5l2.7,2.9
					c-0.5,0.8-1.1,1.6-1.7,2.4c-0.6,0.7-1.3,1.4-2.1,2.1l4.8,5.4L555.4,546.8L555.4,546.8z M550.4,541l-6.2-7.2l-0.7,0.5
					c-1.4,0.9-2.3,1.7-2.8,2.4c-0.5,0.7-0.8,1.5-0.8,2.4c0,1.3,0.4,2.3,1.3,3.2c0.9,0.9,2,1.3,3.3,1.3c1,0,2-0.2,3-0.7
					C548.4,542.6,549.4,541.9,550.4,541z M545.3,528.6l1.1-0.6c0.7-0.4,1.3-0.9,1.6-1.5s0.5-1.2,0.5-1.9c0-0.8-0.2-1.5-0.7-2
					c-0.5-0.5-1.1-0.8-1.9-0.8c-0.9,0-1.6,0.3-2.1,0.8c-0.5,0.5-0.8,1.2-0.8,2c0,0.4,0.1,0.8,0.2,1.2c0.1,0.4,0.4,0.7,0.7,1.1
					L545.3,528.6z"/>
				<path class="st2" d="M579.9,546.8v-28.5h4.6v24.4h10.4v4.1H579.9z"/>
				<path class="st2" d="M621.2,546.8l-3.2-7.3h-11.3l-3.3,7.3h-4.9l13.8-29.6l13.8,29.6H621.2L621.2,546.8z M608.4,535.6h7.9
					l-2.9-6.5c-0.2-0.4-0.3-0.9-0.5-1.4c-0.2-0.5-0.4-1.1-0.5-1.8c-0.2,0.6-0.3,1.2-0.5,1.7s-0.4,1-0.5,1.5L608.4,535.6z"/>
				<path class="st2" d="M630.8,541.1l3.7-1.7c0.4,1.3,1,2.2,1.9,2.9c0.9,0.7,2.1,1,3.6,1c1.4,0,2.5-0.4,3.3-1.1s1.2-1.8,1.2-3.1
					c0-1.7-1.4-3.2-4.2-4.5c-0.4-0.2-0.7-0.3-0.9-0.4c-3.1-1.5-5.2-2.9-6.3-4.2c-1-1.2-1.6-2.8-1.6-4.5c0-2.3,0.8-4.2,2.4-5.6
					c1.6-1.4,3.6-2.2,6.2-2.2c2.1,0,3.9,0.4,5.3,1.2c1.4,0.8,2.4,2,2.9,3.5l-3.6,1.9c-0.6-0.9-1.2-1.6-1.9-2
					c-0.7-0.4-1.5-0.6-2.3-0.6c-1.2,0-2.2,0.3-3,1c-0.7,0.6-1.1,1.5-1.1,2.6c0,1.7,1.6,3.3,4.8,4.8c0.2,0.1,0.4,0.2,0.6,0.3
					c2.8,1.3,4.8,2.6,5.8,3.8c1.1,1.2,1.6,2.8,1.6,4.6c0,2.7-0.9,4.8-2.6,6.4c-1.7,1.6-4,2.4-6.9,2.4c-2.4,0-4.4-0.6-6-1.7
					C632.3,544.7,631.3,543.1,630.8,541.1z"/>
				<path class="st2" d="M658,546.8v-28.5h15.9v3.9h-11.3v7.1h11.3v4.1h-11.3v9.2h11.3v4.1L658,546.8L658,546.8z"/>
				<path class="st2" d="M687.3,534v12.7h-4.3v-28.5h6.5c1.9,0,3.4,0.1,4.4,0.4c1,0.2,1.9,0.7,2.7,1.2c0.9,0.7,1.6,1.6,2,2.7
					c0.5,1.1,0.7,2.3,0.7,3.6c0,2.3-0.6,4.1-1.7,5.4c-1.1,1.3-2.7,2.1-4.9,2.3l9.8,13h-5.2l-9.5-12.7L687.3,534L687.3,534z
					 M687.5,530.4h0.8c2.5,0,4.1-0.3,4.9-0.9c0.8-0.6,1.2-1.6,1.2-3c0-1.6-0.4-2.7-1.3-3.3c-0.9-0.6-2.5-1-4.8-1h-0.8L687.5,530.4
					L687.5,530.4z"/>
				<path class="st2" d="M743.8,525.2c-1.3-1.1-2.7-2-4.2-2.5c-1.5-0.6-3-0.8-4.6-0.8c-3.1,0-5.7,1-7.6,3c-2,2-2.9,4.6-2.9,7.8
					c0,3.1,1,5.6,2.8,7.6c1.9,2,4.3,3,7.2,3c1.7,0,3.3-0.3,4.8-0.9c1.5-0.6,3-1.5,4.4-2.7v5.2c-1.2,0.9-2.6,1.6-4.1,2
					c-1.5,0.4-3.1,0.7-4.8,0.7c-2.2,0-4.2-0.4-6-1.1c-1.9-0.7-3.5-1.8-4.9-3.2c-1.4-1.4-2.5-3-3.2-4.8c-0.7-1.9-1.1-3.8-1.1-5.9
					s0.4-4.1,1.1-5.9s1.8-3.5,3.2-4.8c1.4-1.4,3-2.5,4.9-3.2c1.8-0.7,3.8-1.1,5.9-1.1c1.7,0,3.3,0.2,4.8,0.7c1.5,0.5,3,1.2,4.4,2.2
					L743.8,525.2z"/>
				<path class="st2" d="M753.3,546.8v-28.5h4.6v24.4h10.4v4.1H753.3z"/>
				<path class="st2" d="M775.8,546.8v-28.5h4.6v28.5H775.8z"/>
				<path class="st2" d="M790.8,546.8v-29.6l18.1,17.4c0.5,0.5,1,1,1.5,1.6c0.5,0.6,1,1.2,1.6,1.9v-19.8h4.3v29.6l-18.5-17.7
					c-0.5-0.5-1-1-1.4-1.5c-0.5-0.5-0.9-1.1-1.3-1.7v19.8L790.8,546.8L790.8,546.8L790.8,546.8z"/>
				<path class="st2" d="M826.5,546.8v-28.5h4.6v28.5H826.5z"/>
				<path class="st2" d="M864.4,525.2c-1.3-1.1-2.7-2-4.2-2.5c-1.5-0.6-3-0.8-4.6-0.8c-3.1,0-5.7,1-7.6,3c-2,2-2.9,4.6-2.9,7.8
					c0,3.1,1,5.6,2.8,7.6c1.9,2,4.3,3,7.2,3c1.7,0,3.3-0.3,4.8-0.9c1.5-0.6,3-1.5,4.4-2.7v5.2c-1.2,0.9-2.6,1.6-4.1,2
					c-1.5,0.4-3.1,0.7-4.8,0.7c-2.2,0-4.2-0.4-6-1.1c-1.9-0.7-3.5-1.8-4.9-3.2c-1.4-1.4-2.5-3-3.2-4.8c-0.7-1.9-1.1-3.8-1.1-5.9
					s0.4-4.1,1.1-5.9s1.8-3.5,3.2-4.8c1.4-1.4,3-2.5,4.9-3.2c1.8-0.7,3.8-1.1,5.9-1.1c1.7,0,3.3,0.2,4.8,0.7c1.5,0.5,3,1.2,4.4,2.2
					L864.4,525.2z"/>
			</g>
			<g>
				<path class="st2" d="M431.5,325.3l-21.6,1.2l0.5-2.8l10.9-0.4c2.7-0.1,5.3-0.2,7.4-0.1l0-0.1c-2-0.7-4.3-1.9-6.8-3.1l-9.8-4.8
					l0.5-2.8l10.9-0.5c2.6-0.1,5.1-0.2,7.3-0.1l0-0.1c-2.2-0.9-4.3-1.9-6.8-3l-9.8-4.7l0.5-2.7l19.4,9.8l-0.5,2.8l-11.2,0.5
					c-2.7,0.1-4.8,0.2-7,0l0,0.1c2,0.8,3.9,1.6,6.4,2.9l10.1,5L431.5,325.3z"/>
				<path class="st2" d="M432.7,296.2c3.3,1.7,5.7,0.3,7-2.1c0.9-1.7,1.2-2.9,1.3-4l1.9,0.5c-0.1,1.1-0.4,2.7-1.5,4.9
					c-2.2,4.1-6.2,5.1-10.2,3c-4-2.1-5.9-6.2-3.9-10c2.3-4.3,6.7-3.5,9.2-2.2c0.5,0.3,0.9,0.5,1.1,0.7L432.7,296.2z M434.7,288.2
					c-1.5-0.8-4.3-1.5-5.7,1.3c-1.3,2.4,0.4,4.7,2,5.8L434.7,288.2z"/>
				<path class="st2" d="M462.7,256.9c-2-2.1-4.4-4.7-6.1-6.7l-0.1,0.1c1,2.3,2.1,4.9,3.1,7.8l3.7,10.1l-1.6,1.3l-9-5.4
					c-2.7-1.6-5.1-3.1-7.1-4.6l0,0c1.6,2,3.8,4.8,5.7,7.3l5.4,7.2l-2,1.7l-12.4-16.9l2.6-2.2l9.3,5.4c2.3,1.4,4.4,2.7,6.2,4l0.1-0.1
					c-1-2-1.9-4.2-2.9-6.8l-3.7-10.1l2.6-2.2l14.5,15.1l-2,1.7L462.7,256.9z"/>
				<path class="st2" d="M485.7,253.9l-1.1-1.6l-0.1,0c-0.2,1.4-1.1,3.1-3,4.1c-2.7,1.4-5.1,0.2-6.1-1.7c-1.7-3.2,0.3-6.5,5.4-9.1
					l-0.1-0.3c-0.6-1.1-1.9-2.9-4.6-1.5c-1.2,0.6-2.3,1.7-3,2.8l-1.4-1.3c0.7-1.3,2.1-2.6,3.8-3.5c4.1-2.1,6.5,0.1,7.9,2.8l2.6,5
					c0.6,1.2,1.2,2.3,1.9,3.1L485.7,253.9z M481.8,247.3c-2.7,1.3-5.4,3.4-4.1,6c0.8,1.6,2.3,1.8,3.5,1.1c1.7-0.9,2.3-2.6,2.1-3.9
					c0-0.3-0.1-0.6-0.3-0.8L481.8,247.3z"/>
				<path class="st2" d="M495.8,240.9L495.8,240.9c0.2-0.6,0.5-1.4,0.8-2.1l2.5-6.3l3.1-1l-3.5,7.7l9.1,6.3l-3.2,1.1l-7.2-5.2
					l-0.8,1.9l1.8,5.4l-2.6,0.9l-7-20.9l2.6-0.9L495.8,240.9z"/>
				<path class="st2" d="M514.3,236.9c0.7,3.6,3.3,4.7,6,4.3c1.9-0.3,3-0.9,4-1.5l0.8,1.9c-0.9,0.6-2.4,1.4-4.8,1.8
					c-4.6,0.8-7.8-1.7-8.6-6.2s1.2-8.4,5.6-9.2c4.8-0.8,6.9,3.2,7.3,5.9c0.1,0.5,0.1,1,0.1,1.3L514.3,236.9z M521.9,233.6
					c-0.3-1.7-1.5-4.3-4.5-3.7c-2.7,0.5-3.5,3.2-3.4,5.1L521.9,233.6z"/>
				<path class="st2" d="M548.5,241.3l0.5-8.9l-6-12.4l3.1,0.2l2.6,5.9c0.7,1.6,1.3,2.9,1.9,4.4h0.1c0.7-1.3,1.5-2.7,2.3-4.2
					l3.3-5.6l3.1,0.2l-7.7,11.6l-0.5,8.9L548.5,241.3z"/>
				<path class="st2" d="M577.4,237.7c-1.1,5.5-5.3,7.1-8.9,6.4c-4-0.8-6.5-4.3-5.6-9c1-4.9,4.8-7.2,8.9-6.4
					C576,229.5,578.3,233.2,577.4,237.7z M565.7,235.5c-0.6,3.2,0.7,6,3.4,6.6c2.6,0.5,4.9-1.5,5.6-4.8c0.5-2.5-0.1-5.9-3.3-6.5
					C568.1,230.1,566.2,232.7,565.7,235.5z"/>
				<path class="st2" d="M596.6,248c-0.5,1.5-1,2.7-1.3,3.9L593,251l0.7-2.3l-0.1,0c-1.1,0.9-3.1,1.8-5.6,0.9
					c-2.2-0.8-4.4-3.1-2.5-8l3.1-8.2l2.6,1l-2.9,7.8c-1,2.7-0.9,4.8,1.5,5.7c1.7,0.6,3.4-0.1,4.2-1.1c0.3-0.3,0.6-0.8,0.7-1.2
					l3.2-8.6l2.6,1L596.6,248z"/>
				<path class="st2" d="M614.6,258.5c0.5,1.3,1.6,2.9,3.1,4c2.2,1.6,4.4,1.4,5.6-0.3c1.1-1.6,0.9-3.1-0.8-5.7c-2.1-3-2.7-5.7-1-8
					c1.9-2.6,5.5-3,8.8-0.6c1.7,1.3,2.7,2.6,3.2,3.5l-1.9,1.4c-0.3-0.7-1.1-2-2.6-3.1c-2.3-1.7-4.2-0.9-5,0.2
					c-1.1,1.6-0.7,3.1,1,5.7c2.1,3.2,2.5,5.6,0.7,8.1c-1.9,2.6-5.5,3.5-9.5,0.6c-1.6-1.2-3.1-3-3.5-4.2L614.6,258.5z"/>
				<path class="st2" d="M636.7,265.8c1.2-1,2.1-1.9,3-2.7l1.6,1.8l-1.8,1.7l0.1,0.1c1.6-0.3,3.6-0.1,5.2,1.8
					c1.3,1.6,1.4,3.5,0.5,5.2l0,0c0.9-0.2,1.8-0.2,2.6,0c1.1,0.2,2,0.7,3,1.8c1.3,1.5,2.2,4.6-1.7,8l-6.7,5.8l-1.7-2l6.5-5.5
					c2.2-1.9,2.8-3.8,1.4-5.5c-1-1.2-2.7-1.4-4-0.8c-0.4,0.1-0.8,0.4-1.2,0.7l-7,6.1l-1.7-2l6.8-5.9c1.8-1.6,2.4-3.5,1.1-5.1
					c-1.1-1.3-3-1.4-4.3-0.8c-0.4,0.1-0.8,0.4-1.2,0.7l-6.9,5.9l-1.7-2L636.7,265.8z"/>
				<path class="st2" d="M646.3,296.8l13.3-7l1.3,2.4l-13.3,7L646.3,296.8z M664.8,290.6c-0.8,0.5-1.8,0.2-2.3-0.8
					c-0.5-0.9-0.1-1.8,0.7-2.2c0.9-0.5,1.8-0.2,2.3,0.7C666,289.2,665.6,290.1,664.8,290.6z"/>
				<path class="st2" d="M672,300l0.9,2.6l-20.8,7.4l-0.9-2.6L672,300z"/>
				<path class="st2" d="M661.8,318.9c-3.6,0.6-4.8,3.2-4.4,5.9c0.3,1.9,0.8,3.1,1.4,4l-1.9,0.7c-0.6-0.9-1.3-2.4-1.7-4.8
					c-0.7-4.6,1.9-7.8,6.4-8.4c4.5-0.7,8.4,1.5,9.1,5.8c0.7,4.9-3.4,6.8-6.1,7.2c-0.6,0.1-1,0.1-1.3,0.1L661.8,318.9z M664.9,326.5
					c1.7-0.2,4.3-1.4,3.8-4.4c-0.4-2.7-3.1-3.6-5-3.5L664.9,326.5z"/>
			</g>
		</g>
		<g>
			<g>
				<g>
					<path class="st3" d="M562.7,472.6c-2.8,2.9-6.8,4.7-11.1,4.7h-5.7c-2.6,0-5.4-0.7-7.9-1.8c-2.3-1-4.5-2.6-6.1-4.4l-0.4-0.4
						l-54.7-63.8v60.4c0,5.6-4.5,10.1-10.1,10.1h-5.7c-5.6,0-10.1-4.5-10.1-10.1V388c0-4.3,1.8-8.2,4.7-11.1l0.1-0.1
						c2.8-2.8,6.7-4.5,11-4.5h5.6c2.6,0,5.3,0.7,7.8,1.8c2.4,1.1,4.7,2.7,6.5,4.5l55,64.2c7.5-15.2,17.1-15.9,25.7-37.9v56.6
						C567.2,465.9,565.5,469.8,562.7,472.6L562.7,472.6z"/>
				</g>
				<g>
					<path class="st3" d="M573.2,273.5c-10.9,17-24.4,18.3-40,6.4C547,284.2,560.5,284.1,573.2,273.5L573.2,273.5z M514.7,272.8
						c14.1-0.1,21.9,11.3,45.3,1.8c-21.3,5.1-25.8-10.8-45.5-11.9c-8.6,0.4-14.5,2.9-18.3,6.9c-15.2,16.2,3.4,95.8,33.9,92
						c17.1-2.1,34.2-22.1,46.2-38.3c-9.8,9.1-30.5,29.5-46,27.3c-17.8-2.6-39-68.7-20.8-76.7C511,273.1,512.7,272.8,514.7,272.8
						L514.7,272.8z M574.6,355c-1.7,8-33.1,32.1-40.7,45.3c-1.2-11.9,5.1-20,13.6-27c25.6-21.1,58.7-46.3,60.2-82.8
						c0.5-12-4.9-22.1-20.1-27.2c-12.6-4.3-29.7-2.5-46.3,4.9c17.8-1.6,31.4-0.5,40.1,4.6c8.1,4.6,11.3,11.5,11.5,19.3
						c0.7,31.3-29.5,55.2-51.5,72.7c-12.6,10-21.9,21.3-14.6,42.8c4.3,10.6,1.2,2.8,5.5,13.3c-2.2-16.8,36.2-33.9,41.5-54.4
						c-2.3,30.1-40.6,34.1-34.8,71.9C553.7,403.1,587.3,399.3,574.6,355z"/>
				</g>
			</g>
			<g>
				<path class="st3" d="M509.7,503.1c200.3,0,363.7-0.8,363.7-1.8s-163.4-1.8-363.7-1.8c-200.3,0-363.7,0.8-363.7,1.8
					S309.4,503.1,509.7,503.1z"/>
			</g>
		</g>
	</g>
	<g>
		<path class="st2" d="M982.6,369.3c-18.1,0-32.9-14.8-32.9-32.9s14.8-32.9,32.9-32.9s32.9,14.8,32.9,32.9S1000.7,369.3,982.6,369.3
			z M982.6,306.5c-16.5,0-29.9,13.4-29.9,29.9s13.4,29.9,29.9,29.9s29.9-13.4,29.9-29.9S999.1,306.5,982.6,306.5z"/>
	</g>
	<g>
		<path class="st2" d="M976.4,340.1v14.7h-7.6v-36.6h16c7.9,0,12.2,4.4,12.2,10c0,4.9-2.7,7.6-5.4,8.6c1.9,0.7,4.6,2.6,4.6,9.1v1.8
			c0,2.5,0,5.3,0.5,7h-7.3c-0.6-1.6-0.8-4.3-0.8-8.2v-0.5c0-4.1-1-6-7-6H976.4z M976.4,333.9h6.7c4.4,0,6.1-1.7,6.1-4.8
			c0-3-2-4.7-5.9-4.7h-6.9V333.9z"/>
	</g>
</g>
</svg>
